<svg width="51" height="47" viewBox="0 0 51 47" fill="none" xmlns="http://www.w3.org/2000/svg">
<mask id="path-1-inside-1_201_24" fill="white">
<path fill-rule="evenodd" clip-rule="evenodd" d="M46.3476 4.34201C52.137 10.1314 52.137 19.5178 46.3476 25.3071L46.2901 25.3647L46.3206 25.3951L25.3555 46.3602L4.34202 25.3468C-1.44733 19.5574 -1.44733 10.171 4.34202 4.38168C10.1314 -1.40768 19.5178 -1.40767 25.3071 4.38169L25.325 4.39954L25.3825 4.34201C31.1719 -1.44734 40.5583 -1.44735 46.3476 4.34201Z"/>
</mask>
<path d="M46.3476 25.3071L44.9334 23.8929L44.9334 23.8929L46.3476 25.3071ZM46.3476 4.34201L44.9334 5.75622L44.9334 5.75622L46.3476 4.34201ZM46.2901 25.3647L44.8759 23.9504L43.4617 25.3647L44.8759 26.7789L46.2901 25.3647ZM46.3206 25.3951L47.7348 26.8093L49.149 25.3951L47.7348 23.9809L46.3206 25.3951ZM25.3555 46.3602L23.9413 47.7745L25.3555 49.1887L26.7697 47.7745L25.3555 46.3602ZM4.34202 25.3468L2.92781 26.761L2.92781 26.761L4.34202 25.3468ZM4.34202 4.38168L5.75624 5.7959L5.75624 5.7959L4.34202 4.38168ZM25.3071 4.38169L26.7214 2.96751L26.7214 2.96747L25.3071 4.38169ZM25.325 4.39954L23.9107 5.81372L25.3249 7.228L26.7392 5.81377L25.325 4.39954ZM25.3825 4.34201L26.7967 5.75624L26.7967 5.75623L25.3825 4.34201ZM47.7619 26.7213C54.3323 20.1509 54.3323 9.4982 47.7619 2.9278L44.9334 5.75622C49.9417 10.7645 49.9417 18.8846 44.9334 23.8929L47.7619 26.7213ZM47.7043 26.7789L47.7619 26.7213L44.9334 23.8929L44.8759 23.9504L47.7043 26.7789ZM44.8759 26.7789L44.9064 26.8093L47.7348 23.9809L47.7043 23.9504L44.8759 26.7789ZM44.9064 23.9809L23.9413 44.946L26.7697 47.7745L47.7348 26.8093L44.9064 23.9809ZM26.7697 44.946L5.75624 23.9326L2.92781 26.761L23.9413 47.7745L26.7697 44.946ZM5.75624 23.9326C0.747928 18.9243 0.747929 10.8042 5.75624 5.7959L2.92781 2.96747C-3.64259 9.53787 -3.6426 20.1906 2.92781 26.761L5.75624 23.9326ZM5.75624 5.7959C10.7645 0.787587 18.8846 0.78759 23.8929 5.7959L26.7214 2.96747C20.1509 -3.60293 9.49822 -3.60294 2.92781 2.96747L5.75624 5.7959ZM23.8929 5.79586L23.9107 5.81372L26.7392 2.98537L26.7214 2.96751L23.8929 5.79586ZM23.9683 2.92779L23.9108 2.98532L26.7392 5.81377L26.7967 5.75624L23.9683 2.92779ZM47.7619 2.9278C41.1914 -3.64261 30.5387 -3.64261 23.9683 2.9278L26.7967 5.75623C31.8051 0.747917 39.9251 0.747915 44.9334 5.75622L47.7619 2.9278Z" fill="black" mask="url(#path-1-inside-1_201_24)"/>
</svg>
